<?xml version="1.0" standalone="no"?><!DOCTYPE svg PUBLIC "-//W3C//DTD SVG 1.1//EN" "http://www.w3.org/Graphics/SVG/1.1/DTD/svg11.dtd"><svg t="1599636672145" class="icon" viewBox="0 0 1024 1024" version="1.1" xmlns="http://www.w3.org/2000/svg" p-id="570" xmlns:xlink="http://www.w3.org/1999/xlink" width="200" height="200"><defs><style type="text/css"></style></defs><path d="M664 577.7c-8-2.5-16-5-22.1-6.8-17 1.7-33.1 4.4-49.2 4.5-25.3 0.2-47.4-18.9-50-44.1-1.9-17.6-2.3-35.9 0.6-53.2 1.8-10.5 9.2-22 17.4-29.2 21.5-19 47.4-18.5 72.2-7.8 23.3 10.1 32.2 30.4 30.8 55.3-1 18.9 3 38.5-8.8 55.7-1.1 1.5 0.5 5.6 1.8 7.9 2.8 4.8 6.2 9.1 9.4 13.7-0.8 1.4-1.5 2.7-2.1 4z m-20.7-39c4.9-21.3 5.9-42.2 1.6-63.2-0.3-1.6-1.3-3.2-2.2-4.7-11.4-19.6-44.5-27-66-14.6-11.7 6.7-18.6 16.7-18.9 30.6-0.2 10 0.3 20-0.3 30-1.1 17.3 4.7 31.7 20.6 38.8 17.4 7.8 35.6 7.4 53.7-2.6-7.7-10.9-14.5-20.6-21.5-30.4 17.9-7.2 23.9 6 33 16.1zM523.6 577.3c-8.2-2.4-16.5-4.9-28.3-8.4-15.8 8.8-37.2 10.1-58.5 3.5-21.3-6.7-33.7-22.3-35.9-44.9-0.9-9.9 0.1-20-0.6-29.9-3.2-44.2 30.2-69.8 76.3-61.8 27.8 4.8 44.9 23.8 45.5 52 0.5 21.3 4.6 43.6-8 63.6-1.2 1.9 0.5 6.4 2 9.1 2.6 4.8 6.1 9.1 9.3 13.6-0.6 1-1.2 2.1-1.8 3.2z m-22.7-38.7c1.8-0.2 3.5-0.5 5.3-0.7 0-15.4 0.1-30.8 0-46.2-0.2-20-9.3-33.6-26-38.9-21.7-6.9-45.7-1.8-55.8 13.2-4.1 6.1-6.7 14.1-7.5 21.5-1.3 11.1-0.3 22.5-0.4 33.8-0.1 17.1 8 29.7 23.6 35.3 16.8 6 34.1 6.3 50.4-4-7.5-11.1-14.1-20.7-20.5-30.2 18.3-8 22.7 7.5 30.9 16.2zM891.8 499.7v-33.5c11.8-2.5 16.6 1.3 15.5 12.4-0.6 6.4-0.1 13-0.1 20.8h45.4v13.3h-46v62.7c-26.6 4.5-31.1 2.8-32.1-11.7 5.1-0.4 10.1-0.9 16.3-1.4v-49.5c-13.5 0-26.8-0.4-40.1 0.1-9.9 0.4-14.6-2.7-13.4-13.5 2-18.6 3.3-37.2 5.1-57.8h104.1v11.8h-87.6c-1.3 14.4-2.8 26.7-3.3 39.1-0.1 2.3 4.1 6.6 6.6 6.8 9.4 0.9 18.9 0.4 29.6 0.4zM696.5 575.4v-67.9c33.6 0 66.5-0.2 99.4 0.4 3 0.1 8.4 5.5 8.5 8.6 0.8 19.4 0.4 38.8 0.4 58.9H696.5z m16.1-40.7h75.9c-0.4-5-0.6-9-1-13.4h-74.9v13.4z m-0.6 14.8c0.4 5 0.6 8.7 0.9 12.6h75.4c-0.2-4.7-0.4-8.6-0.7-12.6H712zM713.7 484.9c-2.8-7.6-4.6-12.4-6.6-17.9 9-2.4 16.3-2.8 19.1 8.2 1.9 7.5 6.8 10.1 14.5 9.5 6.9-0.6 14.1 0.8 20.8-0.5 4.6-0.9 10.8-4.1 12.2-7.9 3.8-9.7 9.5-12.6 19.9-9.1-1.8 5.1-3.6 10.1-6 16.9h30.6c0.5 5.2 0.8 8.8 1.2 13.4H682V485c10.1-0.1 19.9-0.1 31.7-0.1zM689.4 460v-13.9H740v-12.7c7 2 16.6 2.3 17.7 5.5 3 8.5 8.6 7.1 14.4 7.2 12.5 0.1 25.1 0 38.1 0 1.8 7.4 4.7 13.9-6.5 13.9H689.4z" p-id="571"></path><path d="M830.9 572.3c6.5-15.1 11.2-26.2 15.9-37.2 5.1-11.8 5.1-11.8 21.4-9.3-6 14-11.1 28.1-18.2 41-2 3.4-10.4 3.2-19.1 5.5zM924.6 525.8c11.1-3 18.1-1 21.8 10.1 3.8 11.4 9.1 22.2 13.7 33.2-12.8 4.5-19.1-0.5-22.8-12-3.3-10.6-8.2-20.6-12.7-31.3z" p-id="572"></path><path d="M268.3 370.4s-0.2 0.1-0.4 0.3c0.2-0.1 0.4-0.3 0.4-0.3z" fill="#FFDC00" p-id="573"></path><path d="M272.4 395.4l-4.1-25s-2.7 25.3-32.5 52.4c-13.7 12.5-37.9 26.2-37.9 26.2l56.9 98.5s5.4 16.3-1.8 31.6c-8.4 17.9-25.3 28.9-57.8 29.8-28.9 0.8-48.8-16.3-52.4-39.7-3.6-23.2 11.5-41.1 28.9-47.9 16.3-6.3 43.4-3.6 43.4-3.6l-63.2-106.6 0.9-10.8s20.3 2.6 56-4.5c16.3-3.3 30-8.7 40.2-13.7-15.6-6.8-32.9-10.6-51-10.6-70.3 0-127.4 57-127.4 127.4 0 70.3 57 127.4 127.4 127.4 70.3 0 127.4-57 127.4-127.4-0.2-42.7-21-80.3-53-103.5z" fill="#FFDC00" p-id="574"></path><path d="M268.3 370.4s-23.5 18.1-59.6 25.3c-35.7 7.1-56 4.5-56 4.5l-0.9 10.8L215 517.7s-27.1-2.7-43.4 3.6c-17.4 6.7-32.5 24.7-28.9 47.9 3.6 23.5 23.5 40.5 52.4 39.7 32.5-0.9 49.4-11.9 57.8-29.8 7.2-15.4 1.8-31.6 1.8-31.6L197.8 449s24.2-13.7 37.9-26.2c29.9-27.1 32.6-52.4 32.6-52.4z" fill="#0AC094" p-id="575"></path></svg>